<svg width="1200" height="675" xmlns="http://www.w3.org/2000/svg">
  <!-- Background -->
  <rect width="1200" height="675" fill="#1e1e2e"/>

  <!-- Border -->
  <rect x="10" y="10" width="1180" height="655" fill="none" stroke="#89b4fa" stroke-width="3" rx="10"/>

  <!-- Terminal-style header -->
  <rect x="20" y="20" width="1160" height="40" fill="#313244" rx="5"/>
  <circle cx="40" cy="40" r="6" fill="#f38ba8"/>
  <circle cx="60" cy="40" r="6" fill="#fab387"/>
  <circle cx="80" cy="40" r="6" fill="#a6e3a1"/>

  <!-- Main icon -->
  <g transform="translate(500, 180)">
    <!-- Graduation cap -->
    <path d="M0,-30 L-50,-15 L0,0 L50,-15 Z" fill="#89b4fa"/>
    <rect x="-5" y="0" width="10" height="40" fill="#89b4fa"/>
    <circle cx="0" cy="40" r="8" fill="#89b4fa"/>
    <path d="M20,-5 L40,5 L40,25 L20,15 Z" fill="#cba6f7"/>
  </g>

  <!-- Title text -->
  <text x="600" y="300" text-anchor="middle" font-family="monospace" font-size="32" fill="#cdd6f4" font-weight="bold">
    🎓 Academic Thesis AI
  </text>

  <!-- Subtitle -->
  <text x="600" y="340" text-anchor="middle" font-family="monospace" font-size="20" fill="#a6adc8">
    Demo Video Placeholder
  </text>

  <!-- Stats -->
  <g transform="translate(300, 400)">
    <text x="0" y="0" font-family="monospace" font-size="18" fill="#a6e3a1">
      ✓ 15 AI Agents
    </text>
    <text x="0" y="35" font-family="monospace" font-size="18" fill="#a6e3a1">
      ✓ 200M+ Research Papers
    </text>
    <text x="0" y="70" font-family="monospace" font-size="18" fill="#a6e3a1">
      ✓ 95%+ Citation Success
    </text>
  </g>

  <g transform="translate(700, 400)">
    <text x="0" y="0" font-family="monospace" font-size="18" fill="#89dceb">
      ⚡ 15-25 min generation
    </text>
    <text x="0" y="35" font-family="monospace" font-size="18" fill="#89dceb">
      💰 $10-50 per thesis
    </text>
    <text x="0" y="70" font-family="monospace" font-size="18" fill="#89dceb">
      📄 Publication-ready PDF
    </text>
  </g>

  <!-- Bottom text -->
  <text x="600" y="600" text-anchor="middle" font-family="monospace" font-size="16" fill="#6c7086">
    See docs/VISUAL_ASSETS_GUIDE.md to create the real demo
  </text>
</svg>
