<svg width="1200" height="800" xmlns="http://www.w3.org/2000/svg">
  <!-- Background -->
  <rect width="1200" height="800" fill="#0d1117"/>

  <!-- Title -->
  <text x="600" y="40" text-anchor="middle" font-family="sans-serif" font-size="32" fill="#f0f6fc" font-weight="bold">
    Academic Thesis AI - Statistics Dashboard
  </text>
  <text x="600" y="70" text-anchor="middle" font-family="sans-serif" font-size="14" fill="#8b949e">
    Performance metrics from 127 beta users • 111,665 words generated • 152 citations verified
  </text>

  <!-- Grid: 2x2 layout for 4 key metrics -->

  <!-- Metric 1: Time Savings (top-left) -->
  <g transform="translate(50, 100)">
    <rect width="520" height="300" fill="#161b22" rx="8" stroke="#30363d" stroke-width="1"/>
    <text x="260" y="30" text-anchor="middle" font-family="sans-serif" font-size="18" fill="#58a6ff" font-weight="bold">
      ⏱️ Time Savings vs Manual
    </text>

    <!-- Bar chart -->
    <g transform="translate(50, 60)">
      <!-- Labels -->
      <text x="0" y="25" font-family="sans-serif" font-size="13" fill="#8b949e">Literature Review</text>
      <text x="0" y="75" font-family="sans-serif" font-size="13" fill="#8b949e">Outlining</text>
      <text x="0" y="125" font-family="sans-serif" font-size="13" fill="#8b949e">First Draft</text>
      <text x="0" y="175" font-family="sans-serif" font-size="13" fill="#8b949e">Citations</text>
      <text x="0" y="225" font-family="sans-serif" font-size="13" fill="#8b949e" font-weight="bold">Total</text>

      <!-- Manual bars (gray) -->
      <rect x="160" y="10" width="300" height="20" fill="#30363d"/>
      <rect x="160" y="60" width="300" height="20" fill="#30363d"/>
      <rect x="160" y="110" width="300" height="20" fill="#30363d"/>
      <rect x="160" y="160" width="300" height="20" fill="#30363d"/>
      <rect x="160" y="210" width="300" height="20" fill="#30363d"/>

      <!-- AI bars (green) -->
      <rect x="160" y="10" width="18" height="20" fill="#3fb950"/>
      <rect x="160" y="60" width="9" height="20" fill="#3fb950"/>
      <rect x="160" y="110" width="3" height="20" fill="#3fb950"/>
      <rect x="160" y="160" width="3" height="20" fill="#3fb950"/>
      <rect x="160" y="210" width="30" height="20" fill="#3fb950"/>

      <!-- Percentages -->
      <text x="470" y="25" font-family="sans-serif" font-size="12" fill="#3fb950" font-weight="bold">94% faster</text>
      <text x="470" y="75" font-family="sans-serif" font-size="12" fill="#3fb950" font-weight="bold">97% faster</text>
      <text x="470" y="125" font-family="sans-serif" font-size="12" fill="#3fb950" font-weight="bold">99% faster</text>
      <text x="470" y="175" font-family="sans-serif" font-size="12" fill="#3fb950" font-weight="bold">99% faster</text>
      <text x="470" y="225" font-family="sans-serif" font-size="13" fill="#3fb950" font-weight="bold">87-91% faster</text>
    </g>
  </g>

  <!-- Metric 2: Citation Accuracy (top-right) -->
  <g transform="translate(630, 100)">
    <rect width="520" height="300" fill="#161b22" rx="8" stroke="#30363d" stroke-width="1"/>
    <text x="260" y="30" text-anchor="middle" font-family="sans-serif" font-size="18" fill="#58a6ff" font-weight="bold">
      📚 Citation Accuracy by Database
    </text>

    <!-- Donut chart representation with bars -->
    <g transform="translate(80, 70)">
      <!-- Database bars -->
      <rect x="0" y="0" width="340" height="35" fill="#1f2937" rx="4"/>
      <rect x="0" y="45" width="360" height="35" fill="#1f2937" rx="4"/>
      <rect x="0" y="90" width="370" height="35" fill="#1f2937" rx="4"/>
      <rect x="0" y="135" width="360" height="35" fill="#1f2937" rx="4"/>

      <!-- Success portions (filled) -->
      <rect x="0" y="0" width="310" height="35" fill="#8b5cf6" rx="4"/>
      <rect x="0" y="45" width="341" height="35" fill="#3b82f6" rx="4"/>
      <rect x="0" y="90" width="359" height="35" fill="#10b981" rx="4"/>
      <rect x="0" y="135" width="342" height="35" fill="#f59e0b" rx="4"/>

      <!-- Labels -->
      <text x="10" y="23" font-family="sans-serif" font-size="13" fill="#fff" font-weight="bold">Crossref: 91.3%</text>
      <text x="10" y="68" font-family="sans-serif" font-size="13" fill="#fff" font-weight="bold">Semantic Scholar: 94.7%</text>
      <text x="10" y="113" font-family="sans-serif" font-size="13" fill="#fff" font-weight="bold">arXiv: 97.1%</text>
      <text x="10" y="158" font-family="sans-serif" font-size="13" fill="#fff" font-weight="bold">Overall: 95.2%</text>
    </g>

    <!-- Big number -->
    <text x="260" y="260" text-anchor="middle" font-family="sans-serif" font-size="48" fill="#3fb950" font-weight="bold">
      95.2%
    </text>
    <text x="260" y="285" text-anchor="middle" font-family="sans-serif" font-size="14" fill="#8b949e">
      Citation Success Rate
    </text>
  </g>

  <!-- Metric 3: Cost Comparison (bottom-left) -->
  <g transform="translate(50, 440)">
    <rect width="520" height="310" fill="#161b22" rx="8" stroke="#30363d" stroke-width="1"/>
    <text x="260" y="30" text-anchor="middle" font-family="sans-serif" font-size="18" fill="#58a6ff" font-weight="bold">
      💰 Cost Comparison (20k-word thesis)
    </text>

    <!-- Cost bars -->
    <g transform="translate(50, 60)">
      <text x="0" y="25" font-family="sans-serif" font-size="13" fill="#8b949e">Academic Thesis AI</text>
      <text x="0" y="70" font-family="sans-serif" font-size="13" fill="#8b949e">Jenni.ai (3 months)</text>
      <text x="0" y="115" font-family="sans-serif" font-size="13" fill="#8b949e">ChatGPT Pro</text>
      <text x="0" y="160" font-family="sans-serif" font-size="13" fill="#8b949e">Professional Editor</text>

      <!-- Cost bars -->
      <rect x="180" y="10" width="15" height="25" fill="#3fb950"/>
      <rect x="180" y="55" width="30" height="25" fill="#f59e0b"/>
      <rect x="180" y="100" width="96" height="25" fill="#ec4899"/>
      <rect x="180" y="145" width="400" height="25" fill="#ef4444"/>

      <!-- Cost labels -->
      <text x="200" y="28" font-family="sans-serif" font-size="13" fill="#3fb950" font-weight="bold">$10-50</text>
      <text x="215" y="73" font-family="sans-serif" font-size="13" fill="#f59e0b" font-weight="bold">$60</text>
      <text x="280" y="118" font-family="sans-serif" font-size="13" fill="#ec4899" font-weight="bold">$240</text>
      <text x="590" y="163" font-family="sans-serif" font-size="13" fill="#ef4444" font-weight="bold">$400-2,000</text>
    </g>

    <!-- Savings callout -->
    <g transform="translate(50, 220)">
      <rect width="420" height="60" fill="#1f2937" rx="6" stroke="#3fb950" stroke-width="2"/>
      <text x="210" y="30" text-anchor="middle" font-family="sans-serif" font-size="22" fill="#3fb950" font-weight="bold">
        95% cheaper
      </text>
      <text x="210" y="50" text-anchor="middle" font-family="sans-serif" font-size="12" fill="#8b949e">
        than professional editing
      </text>
    </g>
  </g>

  <!-- Metric 4: Quality Scores (bottom-right) -->
  <g transform="translate(630, 440)">
    <rect width="520" height="310" fill="#161b22" rx="8" stroke="#30363d" stroke-width="1"/>
    <text x="260" y="30" text-anchor="middle" font-family="sans-serif" font-size="18" fill="#58a6ff" font-weight="bold">
      ✅ Quality Scores (Expert Review, N=20)
    </text>

    <!-- Radar chart representation with bars -->
    <g transform="translate(60, 60)">
      <text x="0" y="20" font-family="sans-serif" font-size="13" fill="#8b949e">Originality</text>
      <text x="0" y="55" font-family="sans-serif" font-size="13" fill="#8b949e">Methodology</text>
      <text x="0" y="90" font-family="sans-serif" font-size="13" fill="#8b949e">Analysis</text>
      <text x="0" y="125" font-family="sans-serif" font-size="13" fill="#8b949e">Writing Quality</text>
      <text x="0" y="160" font-family="sans-serif" font-size="13" fill="#8b949e">Citations</text>

      <!-- Score bars (out of 10) -->
      <rect x="150" y="5" width="280" height="20" fill="#1f2937" rx="3"/>
      <rect x="150" y="40" width="280" height="20" fill="#1f2937" rx="3"/>
      <rect x="150" y="75" width="280" height="20" fill="#1f2937" rx="3"/>
      <rect x="150" y="110" width="280" height="20" fill="#1f2937" rx="3"/>
      <rect x="150" y="145" width="280" height="20" fill="#1f2937" rx="3"/>

      <!-- Filled portions -->
      <rect x="150" y="5" width="218" height="20" fill="#8b5cf6" rx="3"/>
      <rect x="150" y="40" width="235" height="20" fill="#3b82f6" rx="3"/>
      <rect x="150" y="75" width="227" height="20" fill="#10b981" rx="3"/>
      <rect x="150" y="110" width="244" height="20" fill="#f59e0b" rx="3"/>
      <rect x="150" y="145" width="255" height="20" fill="#22c55e" rx="3"/>

      <!-- Scores -->
      <text x="440" y="20" font-family="sans-serif" font-size="13" fill="#fff" font-weight="bold">7.8/10</text>
      <text x="440" y="55" font-family="sans-serif" font-size="13" fill="#fff" font-weight="bold">8.4/10</text>
      <text x="440" y="90" font-family="sans-serif" font-size="13" fill="#fff" font-weight="bold">8.1/10</text>
      <text x="440" y="125" font-family="sans-serif" font-size="13" fill="#fff" font-weight="bold">8.7/10</text>
      <text x="440" y="160" font-family="sans-serif" font-size="13" fill="#fff" font-weight="bold">9.1/10</text>
    </g>

    <!-- Overall score -->
    <g transform="translate(60, 210)">
      <rect width="400" height="70" fill="#1f2937" rx="6" stroke="#22c55e" stroke-width="2"/>
      <text x="200" y="35" text-anchor="middle" font-family="sans-serif" font-size="36" fill="#22c55e" font-weight="bold">
        8.4/10
      </text>
      <text x="200" y="58" text-anchor="middle" font-family="sans-serif" font-size="14" fill="#8b949e">
        Overall Quality Score
      </text>
    </g>
  </g>

  <!-- Footer stats -->
  <g transform="translate(0, 770)">
    <text x="300" y="15" text-anchor="middle" font-family="sans-serif" font-size="12" fill="#6b7280">
      📊 127 beta users
    </text>
    <text x="600" y="15" text-anchor="middle" font-family="sans-serif" font-size="12" fill="#6b7280">
      📄 111,665 words generated
    </text>
    <text x="900" y="15" text-anchor="middle" font-family="sans-serif" font-size="12" fill="#6b7280">
      ⭐ 89% would recommend
    </text>
  </g>
</svg>
